<svg xmlns="http://www.w3.org/2000/svg" viewBox="0 0 64 64" fill="none">
  <path d="M32 8c2.2 7.4 3.4 12 8.8 16.6C35.2 23.2 32.8 21 32 16.2 31.2 21 28.8 23.2 23.2 24.6 28.6 20 29.8 15.4 32 8Z" fill="#E8B84A"/>
  <path d="M14 28c7.6-1.2 12.2-1 17.8 3.2-5.6-1.8-8.8-3.6-12.4-8.6-1.2 5.2-1.8 8.2-5.4 11.6Z" fill="#F0C86A"/>
  <path d="M50 28c-7.6-1.2-12.2-1-17.8 3.2 5.6-1.8 8.8-3.6 12.4-8.6 1.2 5.2 1.8 8.2 5.4 11.6Z" fill="#F0C86A"/>
  <path d="M32 26c6.5 3.2 10 7.8 12.5 14.8C40.2 37.4 36.2 35.2 32 35.2c-4.2 0-8.2 2.2-12.5 5.6C22 33.8 25.5 29.2 32 26Z" fill="#D4A017"/>
  <path d="M18 46c6-2.4 10.4-3 14-3s8 .6 14 3c-3.4 4.6-7.8 8-14 10-6.2-2-10.6-5.4-14-10Z" fill="#C4920E"/>
  <circle cx="32" cy="38" r="3.2" fill="#F7E7B0"/>
</svg>
